<svg width="31" height="25" viewBox="0 0 31 25" fill="none" xmlns="http://www.w3.org/2000/svg">
<path d="M28.0286 6.5141V3.48593L15.9863 11.0211L3.94407 3.48593V6.5141L15.9863 13.9789L28.0286 6.5141ZM28.0286 0.457764C28.8267 0.457764 29.5075 0.762928 30.0708 1.37326C30.6812 1.98359 30.9863 2.68781 30.9863 3.48593V21.5141C30.9863 22.3122 30.6812 23.0164 30.0708 23.6268C29.5075 24.2371 28.8267 24.5423 28.0286 24.5423H3.94407C3.14595 24.5423 2.44173 24.2371 1.8314 23.6268C1.26802 23.0164 0.986328 22.3122 0.986328 21.5141V3.48593C0.986328 2.68781 1.26802 1.98359 1.8314 1.37326C2.44173 0.762928 3.14595 0.457764 3.94407 0.457764H28.0286Z" fill="#D90D0E"/>
</svg>
