<svg width="10" height="19" viewBox="0 0 10 19" fill="none" xmlns="http://www.w3.org/2000/svg">
<path d="M9.55746 0.602863H7.18546C6.59954 0.561718 6.01161 0.646728 5.46134 0.852157C4.91107 1.05759 4.41127 1.37866 3.99566 1.7937C3.58005 2.20874 3.2583 2.7081 3.05211 3.25809C2.84593 3.80808 2.76011 4.39589 2.80046 4.98186V7.00286H0.416458C0.36813 7.0022 0.320145 7.01107 0.275244 7.02895C0.230343 7.04684 0.189405 7.07339 0.154768 7.1071C0.120131 7.14081 0.0924726 7.18101 0.0733738 7.22541C0.054275 7.26981 0.0441092 7.31753 0.043457 7.36586V10.2899C0.0441092 10.3382 0.054275 10.3859 0.0733738 10.4303C0.0924726 10.4747 0.120131 10.5149 0.154768 10.5486C0.189405 10.5823 0.230343 10.6089 0.275244 10.6268C0.320145 10.6447 0.36813 10.6535 0.416458 10.6529H2.80046V18.0349C2.80111 18.0832 2.81128 18.1309 2.83037 18.1753C2.84947 18.2197 2.87713 18.2599 2.91177 18.2936C2.94641 18.3273 2.98734 18.3539 3.03224 18.3718C3.07714 18.3897 3.12513 18.3985 3.17346 18.3979H6.28446C6.33279 18.3985 6.38077 18.3897 6.42567 18.3718C6.47057 18.3539 6.51151 18.3273 6.54615 18.2936C6.58078 18.2599 6.60844 18.2197 6.62754 18.1753C6.64664 18.1309 6.65681 18.0832 6.65746 18.0349V10.6529H9.44546C9.49378 10.6535 9.54177 10.6447 9.58667 10.6268C9.63157 10.6089 9.67251 10.5823 9.70715 10.5486C9.74179 10.5149 9.76944 10.4747 9.78854 10.4303C9.80764 10.3859 9.8178 10.3382 9.81846 10.2899V7.36386C9.81837 7.31592 9.80868 7.26847 9.78996 7.22433C9.77124 7.18019 9.74387 7.14025 9.70946 7.10686C9.63862 7.0385 9.5439 7.00047 9.44546 7.00086H6.65646V5.28986C6.65646 4.46686 6.85646 4.04986 7.95646 4.04986H9.55646C9.60478 4.05052 9.65277 4.04166 9.69767 4.02377C9.74257 4.00589 9.78351 3.97933 9.81815 3.94562C9.85279 3.91192 9.88044 3.87171 9.89954 3.82732C9.91864 3.78292 9.9288 3.73519 9.92946 3.68686V0.969863C9.92933 0.921282 9.91958 0.873208 9.90078 0.828413C9.88198 0.783619 9.85449 0.74299 9.81991 0.708871C9.78533 0.674753 9.74433 0.647819 9.69928 0.629625C9.65424 0.61143 9.60604 0.602335 9.55746 0.602863Z" fill="#D90D0E"/>
</svg>
