<svg width="22" height="23" viewBox="0 0 22 23" fill="none" xmlns="http://www.w3.org/2000/svg">
<path d="M15.8171 0.718994H6.15508C4.57761 0.720847 3.06528 1.34831 1.94984 2.46375C0.834399 3.5792 0.206931 5.09152 0.205078 6.66899L0.205078 16.331C0.206931 17.9085 0.834399 19.4208 1.94984 20.5362C3.06528 21.6517 4.57761 22.2791 6.15508 22.281H15.8171C17.3947 22.2794 18.9073 21.6521 20.023 20.5366C21.1386 19.4211 21.7662 17.9086 21.7681 16.331V6.66899C21.7662 5.09135 21.1386 3.57887 20.023 2.4634C18.9073 1.34793 17.3947 0.720582 15.8171 0.718994V0.718994ZM19.8551 16.331C19.8538 17.4013 19.428 18.4273 18.6712 19.1841C17.9144 19.9409 16.8884 20.3667 15.8181 20.368H6.15508C5.08481 20.3667 4.05875 19.9409 3.30195 19.1841C2.54515 18.4273 2.1194 17.4013 2.11808 16.331V6.66899C2.1194 5.59872 2.54515 4.57266 3.30195 3.81587C4.05875 3.05907 5.08481 2.63332 6.15508 2.63199H15.8171C16.8874 2.63332 17.9134 3.05907 18.6702 3.81587C19.427 4.57266 19.8528 5.59872 19.8541 6.66899V16.331H19.8551Z" fill="#D90D0E"/>
<path d="M10.9829 5.66602C9.82874 5.66661 8.7007 6.00946 7.74143 6.6512C6.78215 7.29294 6.03474 8.20474 5.59371 9.27129C5.15268 10.3378 5.03784 11.5112 5.26373 12.643C5.48962 13.7749 6.04608 14.8143 6.86274 15.6298C7.6794 16.4453 8.71957 17.0004 9.8517 17.2247C10.9838 17.4491 12.1571 17.3326 13.223 16.8901C14.2889 16.4476 15.1997 15.699 15.8401 14.7388C16.4806 13.7787 16.8219 12.6502 16.8209 11.496C16.818 9.94931 16.2017 8.46691 15.1073 7.37397C14.0128 6.28104 12.5296 5.66681 10.9829 5.66602ZM10.9829 15.326C10.2265 15.3254 9.4872 15.1006 8.8585 14.68C8.2298 14.2594 7.73988 13.6619 7.45064 12.963C7.1614 12.2641 7.08583 11.4951 7.23347 10.7532C7.38111 10.0114 7.74534 9.32991 8.28014 8.79498C8.81493 8.26004 9.49629 7.89563 10.2381 7.7478C10.9799 7.59996 11.7489 7.67534 12.4479 7.96439C13.147 8.25345 13.7446 8.74322 14.1653 9.37181C14.5861 10.0004 14.8111 10.7396 14.8119 11.496C14.8119 12.5116 14.4085 13.4856 13.6905 14.2039C12.9724 14.9221 11.9985 15.3258 10.9829 15.326Z" fill="#D90D0E"/>
<path d="M16.8213 4.35107C16.5143 4.35115 16.2169 4.45766 15.9796 4.65244C15.7424 4.84723 15.58 5.11824 15.5201 5.41932C15.4602 5.72041 15.5066 6.03293 15.6513 6.30365C15.7961 6.57437 16.0301 6.78655 16.3137 6.90404C16.5974 7.02153 16.9129 7.03706 17.2067 6.94798C17.5005 6.85891 17.7543 6.67074 17.9248 6.41554C18.0954 6.16033 18.1723 5.85387 18.1423 5.54837C18.1123 5.24287 17.9773 4.95721 17.7603 4.74007C17.511 4.49148 17.1734 4.35164 16.8213 4.35107Z" fill="#D90D0E"/>
</svg>
