<svg width="21" height="19" viewBox="0 0 21 19" fill="none" xmlns="http://www.w3.org/2000/svg">
<path d="M19.4957 0.352444C19.2908 0.178776 19.0426 0.0638861 18.7776 0.019986C18.5125 -0.023914 18.2406 0.00481625 17.9906 0.103123L0.944433 6.79784C0.645446 6.91176 0.392193 7.12079 0.22367 7.39276C0.0551474 7.66474 -0.0193009 7.98456 0.0117888 8.303C0.0395258 8.62131 0.169706 8.92206 0.382807 9.16013C0.595909 9.3982 0.880447 9.56078 1.19375 9.62348L5.52454 10.4822V15.8934C5.52439 16.1862 5.6112 16.4723 5.77396 16.7157C5.93672 16.959 6.16809 17.1485 6.43872 17.2601C6.61783 17.3322 6.80894 17.3698 7.002 17.3709C7.19605 17.3716 7.38828 17.3335 7.56745 17.259C7.74662 17.1845 7.90913 17.075 8.04545 16.9369L10.4463 14.5452L14.0753 17.7402C14.3432 17.9765 14.6877 18.1078 15.0449 18.1096C15.202 18.1128 15.3584 18.0878 15.5066 18.0357C15.7503 17.9586 15.9696 17.8193 16.1429 17.6314C16.3162 17.4435 16.4374 17.2137 16.4947 16.9646L19.9667 1.8022C20.0274 1.54056 20.0156 1.26734 19.9326 1.0119C19.8496 0.756457 19.6986 0.528467 19.4957 0.352444ZM6.08782 9.0879L1.48924 8.17372L14.38 3.1042L6.08782 9.0879ZM7.002 15.8934V11.5165L9.32899 13.5664L7.002 15.8934ZM15.0541 16.6322L7.44524 9.93744L18.4061 2.02382L15.0541 16.6322Z" fill="#D90D0E"/>
</svg>
