<svg width="7" height="11" viewBox="0 0 7 11" fill="none" xmlns="http://www.w3.org/2000/svg">
<path d="M3.01628 5.4489L6.83728 9.1889C6.88884 9.2392 6.92981 9.29931 6.95778 9.36569C6.98575 9.43206 7.00016 9.50337 7.00016 9.5754C7.00016 9.64743 6.98575 9.71873 6.95778 9.78511C6.92981 9.85148 6.88884 9.91159 6.83728 9.9619L6.49828 10.2889C6.39235 10.3914 6.2507 10.4487 6.10328 10.4487C5.95586 10.4487 5.81422 10.3914 5.70828 10.2889L1.15928 5.8359C1.10776 5.78526 1.06684 5.72488 1.0389 5.65826C1.01097 5.59164 0.996582 5.52013 0.996582 5.4479C0.996582 5.37566 1.01097 5.30415 1.0389 5.23753C1.06684 5.17091 1.10776 5.11053 1.15928 5.0599L5.70428 0.610895C5.81022 0.508376 5.95186 0.451061 6.09928 0.451061C6.2467 0.451061 6.38834 0.508376 6.49428 0.610895L6.82928 0.938895C6.88096 0.989128 6.92204 1.04922 6.95009 1.1156C6.97814 1.18199 6.9926 1.25333 6.9926 1.3254C6.9926 1.39747 6.97814 1.4688 6.95009 1.53519C6.92204 1.60158 6.88096 1.66166 6.82928 1.71189L3.01628 5.4489Z" fill="white"/>
</svg>
